<svg width="46" height="40" viewBox="0 0 46 40" fill="none" xmlns="http://www.w3.org/2000/svg">
<path d="M45.9187 26.8834C45.9187 33.8031 40.3091 39.4126 33.3894 39.4126L14.5956 39.4126C12.6734 39.4126 11.1152 37.8544 11.1152 35.9322L11.1152 12.2659C11.1152 8.4216 14.2316 5.30519 18.0759 5.30519L42.4383 5.30519C44.3605 5.30519 45.9187 6.8634 45.9187 8.78554L45.9187 26.8834Z" fill="#E8F5E9"/>
<path d="M17.3729 7.39343C14.887 7.39343 12.8633 9.43562 12.8633 11.932C12.8633 13.5113 13.6743 14.9057 14.8989 15.7185C13.4198 16.2131 12.14 17.1374 11.2014 18.3466C10.6824 17.9474 10.1025 17.6263 9.47738 17.3963C10.4253 16.6925 11.0448 15.5621 11.0448 14.2915C11.0448 12.1742 9.33242 10.441 7.22798 10.441C5.12355 10.441 3.41116 12.1742 3.41116 14.2915C3.41116 15.5628 4.03115 16.6938 4.9799 17.3976C2.46808 18.3244 0.674164 20.7512 0.674164 23.6072V25.6133C0.674421 25.7663 0.735597 25.9128 0.844067 26.0205C0.952536 26.1285 1.09931 26.1886 1.25225 26.1881H10.054C10.0754 26.1904 10.0967 26.1917 10.118 26.1914H24.6282C24.6495 26.1917 24.6711 26.1904 24.6922 26.1881H33.4946C33.811 26.1868 34.0673 25.93 34.0681 25.6133V23.6072C34.0681 20.7512 32.2773 18.3244 29.7668 17.3973C30.7155 16.6938 31.3355 15.5625 31.3355 14.2912C31.3355 12.1739 29.6231 10.4407 27.5187 10.4407C25.4143 10.4407 23.7018 12.1739 23.7018 14.2912C23.7018 15.5618 24.3216 16.6925 25.2695 17.396C24.6431 17.6266 24.063 17.9487 23.5433 18.3489C22.605 17.1389 21.327 16.2134 19.848 15.7185C21.0723 14.9057 21.8836 13.5113 21.8836 11.932C21.8836 9.43562 19.8588 7.39343 17.373 7.39343H17.3729ZM17.3729 8.54498C19.232 8.54498 20.7308 10.0538 20.7308 11.932C20.7308 13.7956 19.2554 15.2898 17.4168 15.3137C17.4022 15.3137 17.3878 15.3117 17.3729 15.3117C17.358 15.3117 17.3438 15.3137 17.3289 15.3137C15.4903 15.2901 14.0159 13.7956 14.0159 11.932C14.0159 10.0536 15.5134 8.54498 17.3726 8.54498H17.3729ZM7.22805 11.5924C8.70322 11.5924 9.89332 12.7897 9.89332 14.2914C9.89332 15.783 8.71861 16.9752 7.25733 16.9914C7.24756 16.9914 7.23805 16.9903 7.22803 16.9903C7.21826 16.9903 7.20875 16.9914 7.19873 16.9914C5.73745 16.9752 4.56274 15.7828 4.56274 14.2914C4.56274 12.7898 5.75284 11.5924 7.22801 11.5924H7.22805ZM27.5183 11.5924C28.9935 11.5924 30.1836 12.7897 30.1836 14.2914C30.1836 15.783 29.0089 16.9752 27.5476 16.9914C27.5378 16.9914 27.5283 16.9903 27.5183 16.9903C27.5085 16.9903 27.499 16.9914 27.489 16.9914C26.0277 16.9752 24.853 15.7828 24.853 14.2914C24.853 12.7898 26.0431 11.5924 27.5183 11.5924H27.5183ZM17.3288 16.4652C17.3434 16.4655 17.3578 16.4672 17.3727 16.4672C17.3874 16.4672 17.4018 16.4652 17.4167 16.4652C21.1039 16.4888 24.0549 19.4651 24.0549 23.1909L24.0546 25.0396H10.6914V23.1909C10.6914 19.4648 13.6414 16.4889 17.3282 16.4652H17.3288ZM7.18396 18.1442C7.19861 18.1445 7.21301 18.1463 7.22792 18.1463C7.24282 18.1463 7.25696 18.1442 7.27187 18.1442C8.51903 18.1542 9.65722 18.5843 10.5635 19.3037C9.915 20.4512 9.53996 21.7757 9.53996 23.1912V25.0355H1.82525V23.6071C1.82525 20.5791 4.20599 18.1678 7.18383 18.144L7.18396 18.1442ZM27.4742 18.1442C27.4891 18.1445 27.5033 18.1463 27.5182 18.1463C27.5331 18.1463 27.5472 18.1442 27.5621 18.1442C30.54 18.1679 32.9207 20.5794 32.9207 23.6074V25.0355H25.2021L25.2018 23.1912C25.2018 21.7765 24.8278 20.453 24.1805 19.3058C25.0871 18.5853 26.2261 18.1542 27.4743 18.1442H27.4742Z" fill="#103E13"/>
</svg>
