<svg width="46" height="40" viewBox="0 0 46 40" fill="none" xmlns="http://www.w3.org/2000/svg">
<path d="M45.7923 26.8834C45.7923 33.8031 40.1827 39.4126 33.263 39.4126L14.4691 39.4126C12.547 39.4126 10.9888 37.8544 10.9888 35.9322L10.9888 12.2659C10.9888 8.4216 14.1052 5.30519 17.9495 5.30519L42.3119 5.30519C44.2341 5.30519 45.7923 6.8634 45.7923 8.78554L45.7923 26.8834Z" fill="#E8F5E9"/>
<path d="M19.2834 13.6656C19.0662 13.6656 18.8897 13.4893 18.8897 13.2719V12.6027C18.8897 12.3855 19.066 12.209 19.2834 12.209C19.5006 12.209 19.6772 12.3853 19.6772 12.6027V13.2719C19.6772 13.4893 19.5006 13.6656 19.2834 13.6656Z" fill="#103E13"/>
<path d="M17.628 13.6656C17.4108 13.6656 17.2343 13.4893 17.2343 13.2719V12.6027C17.2343 12.3855 17.4105 12.209 17.628 12.209C17.8452 12.209 18.0217 12.3853 18.0217 12.6027V13.2719C18.0215 13.4893 17.8455 13.6656 17.628 13.6656Z" fill="#103E13"/>
<path d="M15.9727 13.6656C15.7555 13.6656 15.5789 13.4893 15.5789 13.2719V12.6027C15.5789 12.3855 15.7552 12.209 15.9727 12.209C16.1899 12.209 16.3664 12.3853 16.3664 12.6027V13.2719C16.3664 13.4893 16.1902 13.6656 15.9727 13.6656Z" fill="#103E13"/>
<path d="M19.2834 16.402C19.0662 16.402 18.8897 16.2258 18.8897 16.0083V15.3394C18.8897 15.1222 19.066 14.9457 19.2834 14.9457C19.5006 14.9457 19.6772 15.122 19.6772 15.3394V16.0083C19.6772 16.2258 19.5006 16.402 19.2834 16.402Z" fill="#103E13"/>
<path d="M17.628 16.402C17.4108 16.402 17.2343 16.2258 17.2343 16.0083V15.3394C17.2343 15.1222 17.4105 14.9457 17.628 14.9457C17.8452 14.9457 18.0217 15.122 18.0217 15.3394V16.0083C18.0215 16.2258 17.8455 16.402 17.628 16.402Z" fill="#103E13"/>
<path d="M15.9727 16.402C15.7555 16.402 15.5789 16.2258 15.5789 16.0083V15.3394C15.5789 15.1222 15.7552 14.9457 15.9727 14.9457C16.1899 14.9457 16.3664 15.122 16.3664 15.3394V16.0083C16.3664 16.2258 16.1902 16.402 15.9727 16.402Z" fill="#103E13"/>
<path d="M19.2834 19.1384C19.0662 19.1384 18.8897 18.9621 18.8897 18.7447V18.0755C18.8897 17.8583 19.066 17.6818 19.2834 17.6818C19.5006 17.6818 19.6772 17.858 19.6772 18.0755V18.7447C19.6772 18.9621 19.5006 19.1384 19.2834 19.1384Z" fill="#103E13"/>
<path d="M17.628 19.1384C17.4108 19.1384 17.2343 18.9621 17.2343 18.7447V18.0755C17.2343 17.8583 17.4105 17.6818 17.628 17.6818C17.8452 17.6818 18.0217 17.858 18.0217 18.0755V18.7447C18.0215 18.9621 17.8455 19.1384 17.628 19.1384Z" fill="#103E13"/>
<path d="M15.9727 19.1384C15.7555 19.1384 15.5789 18.9621 15.5789 18.7447V18.0755C15.5789 17.8583 15.7552 17.6818 15.9727 17.6818C16.1899 17.6818 16.3664 17.858 16.3664 18.0755V18.7447C16.3664 18.9621 16.1902 19.1384 15.9727 19.1384Z" fill="#103E13"/>
<path d="M19.2834 21.8742C19.0662 21.8742 18.8897 21.698 18.8897 21.4805V20.8114C18.8897 20.5942 19.066 20.4176 19.2834 20.4176C19.5006 20.4176 19.6772 20.5939 19.6772 20.8114V21.4805C19.6772 21.698 19.5006 21.8742 19.2834 21.8742Z" fill="#103E13"/>
<path d="M17.628 21.8742C17.4108 21.8742 17.2343 21.698 17.2343 21.4805V20.8114C17.2343 20.5942 17.4105 20.4176 17.628 20.4176C17.8452 20.4176 18.0217 20.5939 18.0217 20.8114V21.4805C18.0215 21.698 17.8455 21.8742 17.628 21.8742Z" fill="#103E13"/>
<path d="M15.9727 21.8742C15.7555 21.8742 15.5789 21.698 15.5789 21.4805V20.8114C15.5789 20.5942 15.7552 20.4176 15.9727 20.4176C16.1899 20.4176 16.3664 20.5939 16.3664 20.8114V21.4805C16.3664 21.698 16.1902 21.8742 15.9727 21.8742Z" fill="#103E13"/>
<path d="M19.2834 24.6107C19.0662 24.6107 18.8897 24.4344 18.8897 24.2169V23.548C18.8897 23.3309 19.066 23.1543 19.2834 23.1543C19.5006 23.1543 19.6772 23.3306 19.6772 23.548V24.2169C19.6772 24.4341 19.5006 24.6107 19.2834 24.6107Z" fill="#103E13"/>
<path d="M17.628 24.6107C17.4108 24.6107 17.2343 24.4344 17.2343 24.2169V23.548C17.2343 23.3309 17.4105 23.1543 17.628 23.1543C17.8452 23.1543 18.0217 23.3306 18.0217 23.548V24.2169C18.0215 24.4341 17.8455 24.6107 17.628 24.6107Z" fill="#103E13"/>
<path d="M15.9727 24.6107C15.7555 24.6107 15.5789 24.4344 15.5789 24.2169L15.5792 23.548C15.5792 23.3309 15.7555 23.1543 15.973 23.1543C16.1902 23.1543 16.3667 23.3306 16.3667 23.548V24.2169C16.3664 24.4341 16.1902 24.6107 15.9727 24.6107Z" fill="#103E13"/>
<path d="M4.72451 27.3339C4.72451 27.551 4.90079 27.7276 5.11826 27.7276H29.0963C29.3135 27.7276 29.49 27.5513 29.49 27.3339C29.49 27.1167 29.3138 26.9401 29.0963 26.9401H28.3684V15.635C28.3684 15.4178 28.1921 15.2413 27.9747 15.2413L21.546 15.2416V7.0912C21.546 6.95336 21.474 6.82596 21.3565 6.75456C21.2393 6.6829 21.0926 6.67851 20.9707 6.74193L13.6618 10.5473C13.5313 10.6152 13.4501 10.7497 13.4501 10.8966V18.0158H6.37657C6.15938 18.0158 5.98282 18.1921 5.98282 18.4095V26.9402H5.11738C4.90019 26.9399 4.72418 27.1162 4.72418 27.3336L4.72451 27.3339ZM21.5461 21.205H27.5813V26.9404L21.5461 26.9402V21.205ZM21.5461 18.4688H27.5813V20.4178L21.5461 20.4175V18.4688ZM21.5461 16.0286H27.5813V17.6819H21.5461V16.0286ZM14.2371 11.1357L20.7583 7.74023V26.9398H14.2371V11.1357ZM8.71675 23.7953C8.71675 22.9781 9.3642 22.3131 10.1602 22.3131C10.9562 22.3131 11.6039 22.9779 11.6039 23.7953V26.9403H8.71675V23.7953ZM6.77029 18.8031H13.4499V26.9402H12.3914V23.7951C12.3914 22.5439 11.3909 21.5258 10.1602 21.5258C8.93009 21.5258 7.92955 22.5436 7.92955 23.7951V26.9402H6.77029V18.8031Z" fill="#103E13"/>
</svg>
