<svg width="46" height="40" viewBox="0 0 46 40" fill="none" xmlns="http://www.w3.org/2000/svg">
<path d="M45.666 26.8834C45.666 33.8031 40.0564 39.4126 33.1367 39.4126L14.3428 39.4126C12.4207 39.4126 10.8625 37.8544 10.8625 35.9322L10.8625 12.2659C10.8625 8.4216 13.9789 5.30519 17.8232 5.30519L42.1856 5.30519C44.1078 5.30519 45.666 6.8634 45.666 8.78554L45.666 26.8834Z" fill="#E8F5E9"/>
<path d="M20.1283 16.891C19.9607 16.891 19.805 16.8449 19.6668 16.7708V16.7728C19.6668 17.0365 19.5643 17.2841 19.3783 17.4696C19.1924 17.6556 18.9449 17.7581 18.6815 17.7581C18.5115 17.7581 18.3539 17.7108 18.2141 17.6347C18.2 17.876 18.1036 18.1015 17.9316 18.2737C17.7456 18.4596 17.4982 18.5621 17.2346 18.5621C16.7109 18.5621 16.2857 18.1505 16.2551 17.6346C16.093 17.7222 15.9099 17.7681 15.7209 17.7559C15.2058 17.7222 14.8024 17.2771 14.8024 16.7424V12.3108L14.2978 13.1851C14.1056 13.5194 13.7458 13.727 13.3584 13.727C13.1697 13.727 12.9832 13.6775 12.8181 13.5829C12.6124 13.4637 12.4653 13.2723 12.4042 13.0433C12.3427 12.8142 12.3745 12.5746 12.4934 12.3693C12.4935 12.3693 14.1444 9.51042 14.2452 9.33481C14.2571 9.3084 14.2912 9.23182 14.3203 9.16655C14.348 9.10423 14.3718 9.04028 14.3946 8.97599C14.8924 7.57043 16.1252 6.69733 17.6119 6.69733C19.5426 6.69733 21.1133 8.40054 21.1133 10.4941L21.1135 15.9056C21.1135 16.169 21.0112 16.4164 20.8254 16.6026C20.6394 16.7886 20.3919 16.891 20.1282 16.891L20.1283 16.891ZM17.612 7.22087C16.3344 7.22087 15.3162 7.94246 14.888 9.15108C14.8606 9.22783 14.8321 9.30458 14.7988 9.37936C14.7022 9.596 14.7022 9.596 14.675 9.62715L14.6714 9.62404C14.5366 9.87839 14.1361 10.5719 12.9467 12.6313C12.8978 12.7158 12.8849 12.8139 12.9098 12.9077C12.935 13.0015 12.9956 13.0805 13.0794 13.1289C13.3395 13.2783 13.6957 13.1819 13.8439 12.9236L14.8375 11.2033C14.8969 11.1008 15.0169 11.0504 15.1321 11.0816C15.2465 11.1123 15.3261 11.2161 15.3261 11.3345V16.7426C15.3261 16.9978 15.5186 17.218 15.7552 17.2336C15.8917 17.2408 16.0189 17.195 16.1145 17.0996C16.2015 17.0127 16.2493 16.8969 16.2493 16.7731V13.2361C16.2493 13.0915 16.3666 12.9742 16.5112 12.9742C16.6559 12.9742 16.7731 13.0913 16.7731 13.2361L16.773 17.577C16.773 17.8316 16.9801 18.0387 17.2346 18.0387C17.3583 18.0387 17.4744 17.9908 17.5615 17.9039C17.6484 17.8168 17.6963 17.7007 17.6963 17.577V13.2361C17.6963 13.0915 17.8133 12.9742 17.9581 12.9742C18.1028 12.9742 18.22 13.0913 18.22 13.2361L18.2199 16.7324V16.7731C18.2199 17.0274 18.427 17.2345 18.6817 17.2345C18.8052 17.2345 18.9209 17.1865 19.0085 17.0992C19.0954 17.0125 19.1433 16.8967 19.1433 16.7729V13.2359C19.1433 13.0913 19.2604 12.974 19.4052 12.974C19.5499 12.974 19.6671 13.0911 19.6671 13.2359L19.6668 15.9057C19.6668 16.1604 19.8739 16.3675 20.1283 16.3675C20.2521 16.3675 20.3678 16.3195 20.4548 16.2327C20.542 16.1455 20.5897 16.0294 20.5897 15.9057L20.5899 10.4942C20.5899 8.6895 19.254 7.22093 17.6119 7.22093L17.612 7.22087Z" fill="#103E13"/>
<path d="M9.83859 20.6522L13.6389 18.3724C14.0971 18.0972 14.6867 18.2141 14.9806 18.6387C15.0878 18.7933 15.1426 18.9736 15.1511 19.1571C15.2928 19.0831 15.4469 19.0429 15.6039 19.0429C15.6842 19.0429 15.7649 19.0529 15.8446 19.0728C16.1 19.1366 16.3151 19.2961 16.4504 19.5218C16.5859 19.7478 16.6254 20.0126 16.5616 20.2676C16.5027 20.5036 16.3592 20.7022 16.1597 20.8385C16.2992 20.9208 16.4196 21.0332 16.5052 21.1762C16.6407 21.4021 16.6802 21.6669 16.6165 21.9222C16.5528 22.1772 16.3932 22.3923 16.1672 22.528L16.1659 22.5288C16.303 22.611 16.4212 22.7222 16.5059 22.863C16.6415 23.089 16.681 23.3538 16.6172 23.6092C16.5533 23.8643 16.3937 24.0795 16.168 24.215L11.5278 26.9988C10.6617 27.5181 9.66053 27.6974 8.70905 27.5031C7.74904 27.3069 6.95398 26.7551 6.47056 25.9492C5.70552 24.6742 5.82017 23.1677 6.76919 22.018C6.81265 21.9655 6.85545 21.912 6.89432 21.8566C6.93548 21.7981 6.98353 21.7292 6.99993 21.7056C7.09816 21.5301 8.70104 18.6422 8.70088 18.6425C8.86274 18.3504 9.16612 18.1851 9.47901 18.1853C9.62497 18.1853 9.77305 18.2212 9.90967 18.297C10.0746 18.3891 10.2132 18.5234 10.3101 18.6853C10.5094 19.0174 10.5164 19.433 10.3288 19.7693L9.83859 20.6522ZM9.86138 18.9545C9.81055 18.8697 9.74068 18.8022 9.65524 18.7543C9.47862 18.6565 9.25625 18.7202 9.15901 18.8961C8.01206 20.9625 7.62109 21.6666 7.4702 21.9172L7.47365 21.918C7.46102 21.96 7.46102 21.96 7.32294 22.1573C7.27604 22.224 7.22504 22.2882 7.17305 22.3513C6.357 23.34 6.26225 24.5842 6.91935 25.6798C7.32638 26.3584 7.99909 26.8237 8.81362 26.99C9.63702 27.1574 10.5049 27.0016 11.2581 26.5497L15.8988 23.7658C16.0048 23.7023 16.0795 23.6014 16.1094 23.4819C16.1392 23.3625 16.1207 23.2384 16.0571 23.1324C15.9262 22.9143 15.642 22.8426 15.4239 22.974L13.1346 24.3475C13.0106 24.4219 12.8495 24.3819 12.7753 24.2577C12.7008 24.1338 12.741 23.9729 12.865 23.8984L15.1545 22.525L15.898 22.0789C16.0039 22.0153 16.0789 21.9145 16.1087 21.7952C16.1386 21.6757 16.12 21.5514 16.0564 21.4456C15.9254 21.2273 15.6412 21.1563 15.4232 21.2872L12.3902 23.1067C12.2659 23.1813 12.1053 23.141 12.0309 23.017C11.9564 22.893 11.9968 22.7321 12.1206 22.6577L15.8431 20.4246C15.949 20.361 16.0238 20.2603 16.0536 20.1407C16.0835 20.0213 16.0649 19.8972 16.0015 19.7913C15.938 19.6855 15.8372 19.6107 15.7176 19.5809C15.5974 19.551 15.4738 19.5696 15.3681 19.6329L14.679 20.0463C14.6789 20.0463 14.6789 20.0464 14.6787 20.0464H14.6786L11.6457 21.866C11.5214 21.9407 11.3607 21.9004 11.2864 21.7762C11.2119 21.6523 11.2523 21.4914 11.3761 21.4169L14.4091 19.5974C14.5151 19.5338 14.59 19.433 14.6198 19.3137C14.6526 19.1829 14.6277 19.049 14.55 18.9369C14.4152 18.7419 14.1269 18.6901 13.9083 18.8214L9.27095 21.6034C9.16944 21.6641 9.0394 21.6493 8.95428 21.5672C8.86901 21.4848 8.84982 21.3554 8.90722 21.252L9.8715 19.5146C9.96826 19.341 9.96448 19.1265 9.86133 18.9546L9.86138 18.9545Z" fill="#103E13"/>
<path d="M27.9983 25.9491C27.515 26.7551 26.7202 27.3068 25.76 27.5029C24.8084 27.697 23.8075 27.518 22.9413 26.9987L18.3006 24.2147C18.0748 24.0793 17.9151 23.8641 17.8511 23.6086C17.7876 23.3536 17.8273 23.0887 17.9626 22.8631C18.0471 22.7221 18.1655 22.6109 18.3027 22.5287L18.3014 22.5279C18.0756 22.3924 17.9159 22.1773 17.8523 21.9221C17.7883 21.6669 17.828 21.4019 17.9634 21.1759C18.0507 21.0308 18.1702 20.9173 18.3067 20.8368C18.1086 20.7005 17.9659 20.5026 17.9072 20.2677C17.8432 20.0124 17.8829 19.7475 18.0184 19.5219C18.1537 19.2961 18.369 19.1365 18.6242 19.0727C18.7039 19.0527 18.7847 19.0429 18.8648 19.0429C19.0219 19.043 19.176 19.0829 19.3177 19.157C19.3264 18.9735 19.381 18.7933 19.4883 18.6386C19.7823 18.2144 20.3714 18.097 20.8302 18.3723L24.6304 20.6518L24.1406 19.7695C23.9527 19.4327 23.9595 19.0171 24.1588 18.6848C24.2559 18.5231 24.3946 18.3888 24.5604 18.2959C24.6967 18.2204 24.8443 18.1847 24.9899 18.1847C25.3026 18.1848 25.6063 18.3498 25.768 18.6419C26.3315 19.6572 27.3948 21.572 27.4696 21.7056C27.4855 21.7288 27.5336 21.7976 27.5747 21.8562C27.6139 21.9118 27.6562 21.9649 27.7 22.0177C28.6489 23.1679 28.7633 24.6742 27.9983 25.9491L27.9983 25.9491ZM27.296 22.3515C27.2438 22.2883 27.1927 22.2239 27.1461 22.1574C27.0044 21.9564 27.0008 21.9511 26.9901 21.8985C26.8245 21.6245 26.4204 20.897 25.3097 18.8959C25.2123 18.7203 24.9909 18.6562 24.8146 18.7536C24.7279 18.8021 24.6582 18.8699 24.6073 18.9547C24.5044 19.1264 24.5004 19.3409 24.5977 19.515L25.5616 21.2519C25.6192 21.3555 25.6 21.4847 25.5149 21.5671C25.4299 21.6496 25.3 21.664 25.198 21.6033L20.5607 18.8213C20.3421 18.6903 20.054 18.7416 19.9188 18.9368C19.8411 19.0489 19.8163 19.1828 19.8488 19.3135C19.8787 19.4329 19.9536 19.5335 20.0597 19.5972C20.06 19.5973 20.0602 19.5977 20.0605 19.5978L23.0926 21.4168C23.2166 21.4913 23.2568 21.652 23.1823 21.7761C23.1078 21.9 22.9473 21.9405 22.823 21.8658L19.1005 19.6328C18.9949 19.5695 18.8706 19.5508 18.7512 19.5808C18.6315 19.6106 18.5308 19.6854 18.4673 19.7915C18.4037 19.8973 18.3854 20.0214 18.4149 20.1408C18.4447 20.2602 18.5197 20.3611 18.6256 20.4247L19.35 20.8591L22.3479 22.6578C22.4719 22.7323 22.5121 22.893 22.4376 23.0171C22.3632 23.1409 22.2026 23.1813 22.0783 23.1068L19.0456 21.2873C18.8275 21.1561 18.5434 21.2273 18.4123 21.4457C18.3486 21.5517 18.3303 21.6758 18.3598 21.7952C18.3896 21.9146 18.4646 22.0153 18.5707 22.0791L19.3142 22.5251L21.6034 23.8986C21.7273 23.973 21.7675 24.1337 21.6931 24.2579C21.6186 24.3817 21.4581 24.4224 21.3338 24.3476L19.0446 22.9741C18.939 22.9108 18.8152 22.8921 18.6951 22.9221C18.5757 22.952 18.4747 23.0268 18.4113 23.1325C18.3478 23.2385 18.3293 23.3628 18.3588 23.482C18.3886 23.6014 18.4636 23.7021 18.5697 23.7659L23.2104 26.5498C23.9635 27.0016 24.8319 27.158 25.6549 26.9901C26.4692 26.8238 27.142 26.3586 27.549 25.68C28.2068 24.5842 28.1121 23.3398 27.2963 22.3514L27.296 22.3515Z" fill="#103E13"/>
</svg>
