<svg width="11" height="12" viewBox="0 0 11 12" fill="none" xmlns="http://www.w3.org/2000/svg">
<path opacity="0.1" fill-rule="evenodd" clip-rule="evenodd" d="M0.113586 5.72721C0.113586 2.77698 2.50522 0.385345 5.45545 0.385345C8.40568 0.385345 10.7973 2.77698 10.7973 5.72721C10.7973 8.67744 8.40568 11.0691 5.45545 11.0691C2.50522 11.0691 0.113586 8.67744 0.113586 5.72721Z" fill="white"/>
<path fill-rule="evenodd" clip-rule="evenodd" d="M8.30443 5.72325C8.30443 5.91592 8.28482 6.10832 8.24629 6.29587C8.20872 6.47897 8.15308 6.65873 8.08018 6.83056C8.00896 6.99936 7.92062 7.16202 7.81739 7.31372C7.7157 7.46445 7.59856 7.60587 7.46987 7.73478C7.34091 7.86314 7.19901 7.97996 7.04835 8.08208C6.89615 8.18459 6.73326 8.2728 6.56436 8.34435C6.39227 8.41687 6.2121 8.47243 6.02917 8.50993C5.84137 8.54856 5.64826 8.56828 5.45531 8.56828C5.26222 8.56828 5.06912 8.54856 4.88159 8.50993C4.69838 8.47243 4.51822 8.41687 4.34626 8.34435C4.17738 8.2728 4.01432 8.18459 3.86213 8.08208C3.71147 7.97997 3.56957 7.86314 3.44088 7.73478C3.31206 7.60587 3.19492 7.46445 3.09309 7.31372C2.99042 7.16202 2.90193 6.99935 2.83043 6.83056C2.75752 6.65873 2.70174 6.47896 2.66404 6.29587C2.62593 6.10832 2.60645 5.91592 2.60645 5.72325C2.60645 5.53043 2.62592 5.33762 2.66405 5.15048C2.70176 4.96738 2.75753 4.78735 2.83044 4.61579C2.90194 4.44687 2.99043 4.28406 3.0931 4.13236C3.19493 3.9815 3.31207 3.84035 3.44089 3.71129C3.56958 3.58293 3.71148 3.46639 3.86214 3.36442C4.01434 3.26148 4.17739 3.17327 4.34627 3.10159C4.51823 3.02892 4.69838 2.97322 4.8816 2.936C5.06913 2.89766 5.26223 2.8782 5.45532 2.8782C5.64827 2.8782 5.84137 2.89766 6.02918 2.936C6.21211 2.97323 6.39227 3.02893 6.56437 3.10159C6.73326 3.17326 6.89616 3.26148 7.04836 3.36442C7.19902 3.46639 7.34093 3.58293 7.46989 3.71129C7.59857 3.84035 7.71572 3.9815 7.8174 4.13236C7.92062 4.28406 8.00896 4.44688 8.08018 4.61579C8.15308 4.78735 8.20872 4.96738 8.24629 5.15048C8.28482 5.33762 8.30443 5.53043 8.30443 5.72325ZM4.4172 3.5257C3.73871 3.84563 3.23232 4.46993 3.07442 5.22231C3.13856 5.22286 4.15246 5.23565 5.32063 4.92571C4.89952 4.17861 4.44962 3.56891 4.4172 3.5257ZM5.52221 5.29983C4.26945 5.67434 3.06733 5.64739 3.02421 5.64573C3.0235 5.67185 3.02225 5.69712 3.02225 5.72325C3.02225 6.34739 3.25806 6.9164 3.64564 7.34664C3.64481 7.34538 4.31064 6.16584 5.62363 5.74186C5.65534 5.73131 5.68763 5.72185 5.71962 5.71269C5.65856 5.57461 5.5919 5.43625 5.52221 5.29983ZM7.06212 3.89981C6.63377 3.52264 6.07132 3.29386 5.4553 3.29386C5.25761 3.29386 5.06577 3.31775 4.882 3.36192C4.91844 3.41083 5.37545 4.01623 5.79155 4.77915C6.7096 4.43548 7.05613 3.90869 7.06212 3.89981ZM5.88547 6.11527C5.88005 6.11707 5.87463 6.11861 5.86933 6.12055C4.43379 6.62028 3.965 7.62737 3.95993 7.63837C4.37298 7.95912 4.89105 8.15264 5.45532 8.15264C5.79225 8.15264 6.1132 8.08414 6.40521 7.9601C6.36918 7.74783 6.22783 7.00379 5.88547 6.11527ZM6.81491 7.73811C7.36122 7.36998 7.74921 6.78542 7.85745 6.10831C7.80737 6.0922 7.12666 5.87701 6.34134 6.00274C6.66047 6.87849 6.79014 7.59169 6.81491 7.73811ZM5.97882 5.14118C6.03529 5.25704 6.08998 5.37496 6.14047 5.49347C6.15842 5.53599 6.17595 5.57766 6.19306 5.61933C7.02888 5.51431 7.85232 5.69101 7.88752 5.69823C7.88196 5.12228 7.67564 4.5937 7.33426 4.17987C7.32966 4.18638 6.93943 4.74942 5.97882 5.14118Z" fill="white"/>
</svg>
