<svg width="15" height="10" viewBox="0 0 15 10" fill="none" xmlns="http://www.w3.org/2000/svg">
<path d="M7.84237 5.51997L5.61717 9.331L3.39199 5.51997H7.84237ZM8.43849 5.17935H2.79346L5.61717 10.0051L8.43849 5.17935Z" fill="white"/>
<path d="M11.7111 0.779916L13.9363 4.59095H9.48592L11.7111 0.779916ZM11.7111 0.0986938L8.88739 4.92441H14.5348L11.7111 0.0986938Z" fill="white"/>
<path d="M0.0879517 0.0986938L2.45554 4.36705L5.04274 0.205873L0.0879517 0.0986938Z" fill="#4CAF4F"/>
<path d="M5.61722 0.472565L8.10066 4.71711H3.12897L5.61722 0.472565Z" fill="#4CAF4F"/>
<path d="M8.74021 5.64383L11.2261 10.0051H6.13611L8.66297 5.64383H8.74021Z" fill="#4CAF4F"/>
<path d="M9.27838 5.37939L11.7111 9.67395L14.1777 5.37939H9.27838Z" fill="#4CAF4F"/>
</svg>
