<svg width="64" height="10" viewBox="0 0 64 10" fill="none" xmlns="http://www.w3.org/2000/svg">
<path d="M7.84237 5.51997L5.61717 9.331L3.39199 5.51997H7.84237ZM8.43849 5.17935H2.79346L5.61717 10.0051L8.43849 5.17935Z" fill="white"/>
<path d="M11.7111 0.779916L13.9363 4.59095H9.48592L11.7111 0.779916ZM11.7111 0.0986938L8.88739 4.92441H14.5348L11.7111 0.0986938Z" fill="white"/>
<path d="M0.0879517 0.0986938L2.45554 4.36705L5.04274 0.205873L0.0879517 0.0986938Z" fill="#4CAF4F"/>
<path d="M5.61722 0.472565L8.10066 4.71711H3.12897L5.61722 0.472565Z" fill="#4CAF4F"/>
<path d="M8.74021 5.64383L11.2261 10.0051H6.13611L8.66297 5.64383H8.74021Z" fill="#4CAF4F"/>
<path d="M9.27838 5.37939L11.7111 9.67395L14.1777 5.37939H9.27838Z" fill="#4CAF4F"/>
<path d="M24.8675 0.787567V9.193H23.3325L19.6757 3.90267H19.6141V9.193H17.837V0.787567H19.3966L23.0247 6.0738H23.0986V0.787567H24.8675Z" fill="white"/>
<path d="M29.1759 9.31613C28.5274 9.31613 27.9693 9.18479 27.5014 8.92212C27.0362 8.65672 26.6778 8.28186 26.4261 7.79757C26.1743 7.31053 26.0485 6.73457 26.0485 6.06969C26.0485 5.42123 26.1743 4.85211 26.4261 4.36234C26.6778 3.87257 27.0321 3.49088 27.4891 3.21726C27.9487 2.94365 28.4878 2.80684 29.1061 2.80684C29.522 2.80684 29.9092 2.87388 30.2676 3.00795C30.6288 3.13928 30.9434 3.33765 31.2116 3.60306C31.4825 3.86846 31.6931 4.20227 31.8436 4.60449C31.9941 5.00396 32.0694 5.47184 32.0694 6.00813V6.48832H26.7462V5.40481H30.4236C30.4236 5.15308 30.3689 4.93009 30.2594 4.73582C30.15 4.54156 29.9981 4.3897 29.8038 4.28025C29.6123 4.16807 29.3893 4.11198 29.1349 4.11198C28.8694 4.11198 28.6341 4.17354 28.4289 4.29667C28.2265 4.41706 28.0678 4.57986 27.9528 4.78507C27.8379 4.98755 27.7791 5.21328 27.7764 5.46227V6.49243C27.7764 6.80435 27.8338 7.07386 27.9487 7.30096C28.0664 7.52806 28.2319 7.70317 28.4453 7.8263C28.6588 7.94942 28.9119 8.01099 29.2046 8.01099C29.3989 8.01099 29.5767 7.98362 29.7382 7.9289C29.8996 7.87418 30.0378 7.79209 30.1527 7.68265C30.2676 7.5732 30.3552 7.43913 30.4154 7.28044L32.0324 7.38714C31.9503 7.77568 31.7821 8.11496 31.5276 8.40499C31.2759 8.69229 30.9503 8.91665 30.5508 9.07808C30.1541 9.23678 29.6958 9.31613 29.1759 9.31613Z" fill="white"/>
<path d="M34.5586 2.88893L35.716 5.09289L36.9021 2.88893H38.6956L36.8692 6.04096L38.7449 9.193H36.9595L35.716 7.01366L34.4929 9.193H32.6871L34.5586 6.04096L32.7527 2.88893H34.5586Z" fill="white"/>
<path d="M42.3566 9.31613C41.7109 9.31613 41.1554 9.17932 40.6903 8.9057C40.2279 8.62935 39.8722 8.24629 39.6232 7.75652C39.3769 7.26675 39.2538 6.70311 39.2538 6.06559C39.2538 5.41986 39.3783 4.85348 39.6273 4.36644C39.879 3.87667 40.2361 3.49498 40.6985 3.22137C41.1609 2.94502 41.7109 2.80684 42.3484 2.80684C42.8983 2.80684 43.3799 2.90671 43.7931 3.10645C44.2062 3.30619 44.5332 3.58664 44.774 3.94781C45.0147 4.30898 45.1474 4.73309 45.1721 5.22012H43.5222C43.4757 4.90546 43.3525 4.65237 43.1528 4.46084C42.9558 4.26657 42.6972 4.16944 42.3771 4.16944C42.1062 4.16944 41.8695 4.24332 41.6671 4.39107C41.4673 4.53608 41.3114 4.74813 41.1992 5.02722C41.087 5.30631 41.0309 5.64422 41.0309 6.04096C41.0309 6.44318 41.0856 6.78519 41.1951 7.06702C41.3073 7.34884 41.4646 7.56363 41.6671 7.71138C41.8695 7.85913 42.1062 7.93301 42.3771 7.93301C42.5768 7.93301 42.7561 7.89196 42.9148 7.80988C43.0762 7.72779 43.2089 7.60877 43.3129 7.45281C43.4196 7.29412 43.4893 7.10395 43.5222 6.88233H45.1721C45.1447 7.36389 45.0134 7.78799 44.7781 8.15463C44.5455 8.51854 44.224 8.8031 43.8136 9.00831C43.4032 9.21352 42.9175 9.31613 42.3566 9.31613Z" fill="white"/>
<path d="M49.1644 9.31613C48.516 9.31613 47.9578 9.18479 47.4899 8.92212C47.0248 8.65672 46.6663 8.28186 46.4146 7.79757C46.1629 7.31053 46.037 6.73457 46.037 6.06969C46.037 5.42123 46.1629 4.85211 46.4146 4.36234C46.6663 3.87257 47.0207 3.49088 47.4776 3.21726C47.9373 2.94365 48.4763 2.80684 49.0947 2.80684C49.5106 2.80684 49.8977 2.87388 50.2562 3.00795C50.6173 3.13928 50.932 3.33765 51.2001 3.60306C51.471 3.86846 51.6817 4.20227 51.8322 4.60449C51.9827 5.00396 52.0579 5.47184 52.0579 6.00813V6.48832H46.7348V5.40481H50.4121C50.4121 5.15308 50.3574 4.93009 50.248 4.73582C50.1385 4.54156 49.9867 4.3897 49.7924 4.28025C49.6009 4.16807 49.3779 4.11198 49.1234 4.11198C48.858 4.11198 48.6227 4.17354 48.4175 4.29667C48.215 4.41706 48.0563 4.57986 47.9414 4.78507C47.8265 4.98755 47.7676 5.21328 47.7649 5.46227V6.49243C47.7649 6.80435 47.8224 7.07386 47.9373 7.30096C48.0549 7.52806 48.2205 7.70317 48.4339 7.8263C48.6473 7.94942 48.9004 8.01099 49.1932 8.01099C49.3874 8.01099 49.5653 7.98362 49.7267 7.9289C49.8882 7.87418 50.0263 7.79209 50.1412 7.68265C50.2562 7.5732 50.3437 7.43913 50.4039 7.28044L52.021 7.38714C51.9389 7.77568 51.7706 8.11496 51.5162 8.40499C51.2644 8.69229 50.9388 8.91665 50.5394 9.07808C50.1426 9.23678 49.6843 9.31613 49.1644 9.31613Z" fill="white"/>
<path d="M54.9473 5.54846V9.193H53.1989V2.88893H54.8652V4.00117H54.9391C55.0786 3.63452 55.3126 3.34449 55.6409 3.13107C55.9692 2.91492 56.3673 2.80684 56.8352 2.80684C57.273 2.80684 57.6547 2.90261 57.9803 3.09414C58.3059 3.28567 58.559 3.55928 58.7396 3.91498C58.9202 4.26794 59.0105 4.68931 59.0105 5.17908V9.193H57.2621V5.491C57.2648 5.1052 57.1663 4.80423 56.9666 4.58807C56.7668 4.36918 56.4918 4.25973 56.1416 4.25973C55.9063 4.25973 55.6984 4.31035 55.5178 4.41159C55.3399 4.51283 55.2004 4.66058 55.0991 4.85484C55.0006 5.04637 54.95 5.27758 54.9473 5.54846Z" fill="white"/>
<path d="M63.7416 2.88893V4.20227H59.9452V2.88893H63.7416ZM60.8071 1.37857H62.5555V7.25581C62.5555 7.41724 62.5801 7.54311 62.6293 7.6334C62.6786 7.72095 62.747 7.78252 62.8346 7.81809C62.9249 7.85366 63.0288 7.87144 63.1465 7.87144C63.2286 7.87144 63.3106 7.8646 63.3927 7.85092C63.4748 7.8345 63.5377 7.82219 63.5815 7.81398L63.8565 9.11502C63.769 9.14238 63.6458 9.17385 63.4871 9.20942C63.3284 9.24772 63.1355 9.27098 62.9084 9.27919C62.4871 9.29561 62.1177 9.23951 61.8003 9.11091C61.4856 8.98232 61.2408 8.78258 61.0656 8.5117C60.8905 8.24082 60.8043 7.8988 60.8071 7.48565V1.37857Z" fill="white"/>
</svg>
