<svg width="24" height="22" viewBox="0 0 24 22" fill="none" xmlns="http://www.w3.org/2000/svg">
<mask id="path-1-inside-1_211_2339" fill="white">
<path d="M15.0111 10.7647C14.8435 10.7647 14.6879 10.7186 14.5497 10.6445V10.6464C14.5497 10.9101 14.4472 11.1578 14.2612 11.3433C14.0752 11.5292 13.8278 11.6317 13.5644 11.6317C13.3943 11.6317 13.2367 11.5845 13.097 11.5084C13.0829 11.7496 12.9865 11.9751 12.8145 12.1473C12.6285 12.3333 12.381 12.4358 12.1175 12.4358C11.5938 12.4358 11.1686 12.0242 11.1379 11.5082C10.9759 11.5958 10.7927 11.6417 10.6038 11.6296C10.0887 11.5958 9.68527 11.1507 9.68527 10.6161V6.18447L9.18065 7.05871C8.98845 7.39309 8.62867 7.6007 8.2413 7.6007C8.05255 7.6007 7.86609 7.55117 7.70095 7.45655C7.49531 7.33733 7.3482 7.14595 7.28703 6.917C7.22554 6.6879 7.25735 6.44831 7.37624 6.24297C7.37641 6.24297 9.02731 3.38408 9.12803 3.20847C9.14 3.18206 9.17411 3.10548 9.20314 3.04021C9.23086 2.97789 9.25464 2.91394 9.27743 2.84965C9.77529 1.44409 11.0081 0.570988 12.4948 0.570988C14.4255 0.570988 15.9962 2.2742 15.9962 4.36776L15.9964 9.77925C15.9964 10.0426 15.894 10.2901 15.7082 10.4762C15.5223 10.6622 15.2748 10.7647 15.0111 10.7647L15.0111 10.7647ZM12.4948 1.09453C11.2173 1.09453 10.1991 1.81612 9.7709 3.02474C9.74352 3.10149 9.71498 3.17824 9.68169 3.25302C9.5851 3.46966 9.5851 3.46965 9.55788 3.50081L9.55427 3.49769C9.41947 3.75205 9.019 4.44556 7.82956 6.50499C7.78069 6.58945 7.76773 6.68752 7.79266 6.78132C7.81792 6.87513 7.87843 6.95417 7.96223 7.00255C8.22232 7.15194 8.57853 7.05551 8.72677 6.79723L9.7204 5.07693C9.77977 4.97443 9.89981 4.92409 10.0149 4.95525C10.1294 4.98591 10.2089 5.08972 10.2089 5.20812V10.6163C10.2089 10.8714 10.4015 11.0917 10.6381 11.1072C10.7746 11.1145 10.9018 11.0687 10.9974 10.9733C11.0843 10.8863 11.1322 10.7706 11.1322 10.6467V7.10976C11.1322 6.96512 11.2495 6.84786 11.3941 6.84786C11.5388 6.84786 11.656 6.96495 11.656 7.10976L11.6559 11.4507C11.6559 11.7052 11.863 11.9123 12.1175 11.9123C12.2411 11.9123 12.3572 11.8645 12.4443 11.7775C12.5312 11.6905 12.5791 11.5744 12.5791 11.4507V7.10975C12.5791 6.96511 12.6962 6.84785 12.841 6.84785C12.9857 6.84785 13.1029 6.96495 13.1029 7.10975L13.1028 10.6061V10.6467C13.1028 10.9011 13.3099 11.1082 13.5646 11.1082C13.688 11.1082 13.8038 11.0602 13.8914 10.9729C13.9783 10.8862 14.0262 10.7704 14.0262 10.6466V7.10957C14.0262 6.96493 14.1433 6.84767 14.2881 6.84767C14.4327 6.84767 14.55 6.96476 14.55 7.10957L14.5497 9.77938C14.5497 10.0341 14.7568 10.2412 15.0111 10.2412C15.1349 10.2412 15.2507 10.1931 15.3376 10.1064C15.4249 10.0191 15.4726 9.90303 15.4726 9.77938L15.4728 4.36789C15.4728 2.56316 14.1369 1.09458 12.4948 1.09458L12.4948 1.09453Z"/>
</mask>
<path d="M15.0111 10.7647C14.8435 10.7647 14.6879 10.7186 14.5497 10.6445V10.6464C14.5497 10.9101 14.4472 11.1578 14.2612 11.3433C14.0752 11.5292 13.8278 11.6317 13.5644 11.6317C13.3943 11.6317 13.2367 11.5845 13.097 11.5084C13.0829 11.7496 12.9865 11.9751 12.8145 12.1473C12.6285 12.3333 12.381 12.4358 12.1175 12.4358C11.5938 12.4358 11.1686 12.0242 11.1379 11.5082C10.9759 11.5958 10.7927 11.6417 10.6038 11.6296C10.0887 11.5958 9.68527 11.1507 9.68527 10.6161V6.18447L9.18065 7.05871C8.98845 7.39309 8.62867 7.6007 8.2413 7.6007C8.05255 7.6007 7.86609 7.55117 7.70095 7.45655C7.49531 7.33733 7.3482 7.14595 7.28703 6.917C7.22554 6.6879 7.25735 6.44831 7.37624 6.24297C7.37641 6.24297 9.02731 3.38408 9.12803 3.20847C9.14 3.18206 9.17411 3.10548 9.20314 3.04021C9.23086 2.97789 9.25464 2.91394 9.27743 2.84965C9.77529 1.44409 11.0081 0.570988 12.4948 0.570988C14.4255 0.570988 15.9962 2.2742 15.9962 4.36776L15.9964 9.77925C15.9964 10.0426 15.894 10.2901 15.7082 10.4762C15.5223 10.6622 15.2748 10.7647 15.0111 10.7647L15.0111 10.7647ZM12.4948 1.09453C11.2173 1.09453 10.1991 1.81612 9.7709 3.02474C9.74352 3.10149 9.71498 3.17824 9.68169 3.25302C9.5851 3.46966 9.5851 3.46965 9.55788 3.50081L9.55427 3.49769C9.41947 3.75205 9.019 4.44556 7.82956 6.50499C7.78069 6.58945 7.76773 6.68752 7.79266 6.78132C7.81792 6.87513 7.87843 6.95417 7.96223 7.00255C8.22232 7.15194 8.57853 7.05551 8.72677 6.79723L9.7204 5.07693C9.77977 4.97443 9.89981 4.92409 10.0149 4.95525C10.1294 4.98591 10.2089 5.08972 10.2089 5.20812V10.6163C10.2089 10.8714 10.4015 11.0917 10.6381 11.1072C10.7746 11.1145 10.9018 11.0687 10.9974 10.9733C11.0843 10.8863 11.1322 10.7706 11.1322 10.6467V7.10976C11.1322 6.96512 11.2495 6.84786 11.3941 6.84786C11.5388 6.84786 11.656 6.96495 11.656 7.10976L11.6559 11.4507C11.6559 11.7052 11.863 11.9123 12.1175 11.9123C12.2411 11.9123 12.3572 11.8645 12.4443 11.7775C12.5312 11.6905 12.5791 11.5744 12.5791 11.4507V7.10975C12.5791 6.96511 12.6962 6.84785 12.841 6.84785C12.9857 6.84785 13.1029 6.96495 13.1029 7.10975L13.1028 10.6061V10.6467C13.1028 10.9011 13.3099 11.1082 13.5646 11.1082C13.688 11.1082 13.8038 11.0602 13.8914 10.9729C13.9783 10.8862 14.0262 10.7704 14.0262 10.6466V7.10957C14.0262 6.96493 14.1433 6.84767 14.2881 6.84767C14.4327 6.84767 14.55 6.96476 14.55 7.10957L14.5497 9.77938C14.5497 10.0341 14.7568 10.2412 15.0111 10.2412C15.1349 10.2412 15.2507 10.1931 15.3376 10.1064C15.4249 10.0191 15.4726 9.90303 15.4726 9.77938L15.4728 4.36789C15.4728 2.56316 14.1369 1.09458 12.4948 1.09458L12.4948 1.09453Z" fill="#4CAF4F"/>
<path d="M15.0111 10.7647V9.83659H18.2901L15.4976 11.5551L15.0111 10.7647ZM14.5497 10.6445H13.6216V9.09374L14.9883 9.82655L14.5497 10.6445ZM14.2612 11.3433L13.605 10.687L13.6058 10.6861L14.2612 11.3433ZM13.097 11.5084L12.1705 11.4542L12.2559 9.99357L13.5409 10.6933L13.097 11.5084ZM12.8145 12.1473L13.4711 12.8032L13.4707 12.8036L12.8145 12.1473ZM11.1379 11.5082L10.6967 10.6918L11.978 9.99922L12.0644 11.4532L11.1379 11.5082ZM10.6038 11.6296L10.5443 12.5558L10.5431 12.5557L10.6038 11.6296ZM9.68527 6.18447L8.88148 5.72051L10.6134 2.7201V6.18447H9.68527ZM9.18065 7.05871L8.37601 6.59621L8.37685 6.59474L9.18065 7.05871ZM7.70095 7.45655L7.23953 8.26182L7.23547 8.25947L7.70095 7.45655ZM7.28703 6.917L8.18339 6.67639L8.18367 6.67743L7.28703 6.917ZM7.37624 6.24297L6.57308 5.77792L6.84119 5.31488H7.37624V6.24297ZM9.12803 3.20847L9.97329 3.59172L9.95507 3.63191L9.93312 3.67019L9.12803 3.20847ZM9.20314 3.04021L8.35512 2.66308L8.35513 2.66307L9.20314 3.04021ZM9.27743 2.84965L10.1523 3.15953L10.1522 3.15978L9.27743 2.84965ZM15.9962 4.36776L15.0681 4.36779V4.36776H15.9962ZM15.9964 9.77925L16.9245 9.77923V9.77925H15.9964ZM15.7082 10.4762L16.3651 11.1319L16.3645 11.1325L15.7082 10.4762ZM15.0111 10.7647V11.6928H11.7321L14.5247 9.97429L15.0111 10.7647ZM12.4948 1.09453V0.166438H13.7252L13.3872 1.3495L12.4948 1.09453ZM9.7709 3.02474L10.6457 3.33466L10.645 3.33666L9.7709 3.02474ZM9.68169 3.25302L10.5296 3.63047L10.5293 3.63096L9.68169 3.25302ZM9.55788 3.50081L10.2568 4.11146L9.64963 4.80635L8.95126 4.20321L9.55788 3.50081ZM9.55427 3.49769L8.73422 3.06309L9.27954 2.03413L10.1609 2.79529L9.55427 3.49769ZM7.82956 6.50499L8.63324 6.96917L8.63285 6.96983L7.82956 6.50499ZM7.79266 6.78132L6.89648 7.0226L6.8957 7.0197L7.79266 6.78132ZM7.96223 7.00255L7.49996 7.80732L7.49823 7.80632L7.96223 7.00255ZM8.72677 6.79723L7.92182 6.33525L7.9231 6.33304L8.72677 6.79723ZM9.7204 5.07693L8.91673 4.61274L8.9173 4.61176L9.7204 5.07693ZM10.0149 4.95525L9.77476 5.85173L9.77246 5.85111L10.0149 4.95525ZM10.6381 11.1072L10.5891 12.0341L10.5772 12.0333L10.6381 11.1072ZM10.9974 10.9733L11.6537 11.6295L11.6531 11.6301L10.9974 10.9733ZM11.656 7.10976H12.5841V7.10979L11.656 7.10976ZM11.6559 11.4507H10.7278V11.4507L11.6559 11.4507ZM12.4443 11.7775L13.1012 12.4332L13.1 12.4344L12.4443 11.7775ZM13.1029 7.10975H14.031V7.1098L13.1029 7.10975ZM13.1028 10.6061H12.1747V10.606L13.1028 10.6061ZM13.8914 10.9729L14.547 11.6298L14.5464 11.6304L13.8914 10.9729ZM14.55 7.10957H15.4781V7.10968L14.55 7.10957ZM14.5497 9.77938H13.6216V9.77926L14.5497 9.77938ZM15.3376 10.1064L15.9939 10.7626L15.9933 10.7633L15.3376 10.1064ZM15.4726 9.77938H14.5445V9.77935L15.4726 9.77938ZM15.4728 4.36789H16.4009V4.36792L15.4728 4.36789ZM12.4948 1.09458V2.02268H11.2644L11.6024 0.839618L12.4948 1.09458ZM15.0111 11.6928C14.6694 11.6928 14.3643 11.5982 14.1111 11.4624L14.9883 9.82655C15.0002 9.83298 15.0079 9.83543 15.0109 9.83625C15.0135 9.83695 15.0131 9.83659 15.0111 9.83659V11.6928ZM15.4778 10.6445V10.6464H13.6216V10.6445H15.4778ZM15.4778 10.6464C15.4778 11.1555 15.278 11.64 14.9166 12.0004L13.6058 10.6861C13.6125 10.6795 13.6157 10.6738 13.6177 10.6692C13.6196 10.6646 13.6216 10.6574 13.6216 10.6464H15.4778ZM14.9175 11.9995C14.5573 12.3597 14.0737 12.5598 13.5644 12.5598V10.7036C13.575 10.7036 13.5821 10.7017 13.5868 10.6997C13.5916 10.6978 13.5977 10.6943 13.605 10.687L14.9175 11.9995ZM13.5644 12.5598C13.2182 12.5598 12.9093 12.463 12.6531 12.3235L13.5409 10.6933C13.553 10.6999 13.5606 10.7024 13.5637 10.7032C13.5663 10.704 13.5661 10.7036 13.5644 10.7036V12.5598ZM14.0235 11.5626C13.9968 12.0194 13.8115 12.4624 13.4711 12.8032L12.1578 11.4914C12.1613 11.488 12.1633 11.4849 12.165 11.4811C12.1668 11.4769 12.1697 11.4684 12.1705 11.4542L14.0235 11.5626ZM13.4707 12.8036C13.1105 13.1638 12.6269 13.3639 12.1175 13.3639V11.5077C12.1283 11.5077 12.1353 11.5057 12.1401 11.5038C12.1448 11.5018 12.1509 11.4983 12.1582 11.4911L13.4707 12.8036ZM12.1175 13.3639C11.0929 13.3639 10.2707 12.5597 10.2115 11.5633L12.0644 11.4532C12.0653 11.469 12.0718 11.4828 12.0832 11.4937C12.0888 11.4991 12.0944 11.5025 12.0994 11.5045C12.1037 11.5062 12.1092 11.5077 12.1175 11.5077V13.3639ZM11.5792 12.3247C11.2794 12.4867 10.924 12.5802 10.5443 12.5558L10.6633 10.7034C10.6633 10.7034 10.6653 10.7036 10.6702 10.7025C10.6754 10.7012 10.6845 10.6983 10.6967 10.6918L11.5792 12.3247ZM10.5431 12.5557C9.51258 12.4881 8.75718 11.6118 8.75718 10.6161H10.6134C10.6134 10.6475 10.6248 10.6716 10.639 10.6874C10.653 10.7028 10.6624 10.7034 10.6645 10.7035L10.5431 12.5557ZM8.75718 10.6161V6.18447H10.6134V10.6161H8.75718ZM10.4891 6.64844L9.98445 7.52268L8.37685 6.59474L8.88148 5.72051L10.4891 6.64844ZM9.98529 7.52121C9.62667 8.14513 8.95913 8.52879 8.2413 8.52879V6.67261C8.29821 6.67261 8.35023 6.64105 8.37601 6.59621L9.98529 7.52121ZM8.2413 8.52879C7.89033 8.52879 7.54485 8.43676 7.23953 8.26181L8.16237 6.65128C8.18733 6.66559 8.21476 6.67261 8.2413 6.67261V8.52879ZM7.23547 8.25947C6.81878 8.0179 6.51549 7.62478 6.39039 7.15656L8.18367 6.67743C8.18283 6.67426 8.18051 6.66866 8.17604 6.66284C8.17161 6.65705 8.1675 6.65425 8.16644 6.65363L7.23547 8.25947ZM6.39067 7.1576C6.26508 6.68974 6.33083 6.19628 6.57308 5.77792L8.17941 6.70803C8.18073 6.70575 8.18305 6.70045 8.18405 6.69295C8.18504 6.68543 8.18421 6.67943 8.18339 6.67639L6.39067 7.1576ZM7.37624 5.31488C6.92098 5.43421 6.58021 5.7658 6.57767 5.77008C6.57682 5.77151 6.57556 5.77366 6.57516 5.77434C6.57493 5.77474 6.57453 5.77541 6.5744 5.77564C6.57431 5.77579 6.57414 5.77608 6.5741 5.77615C6.57397 5.77637 6.57401 5.7763 6.57436 5.7757C6.57499 5.77461 6.57605 5.77278 6.57759 5.77012C6.58064 5.76485 6.58522 5.75692 6.59127 5.74645C6.60335 5.72555 6.62111 5.69481 6.64378 5.65556C6.68911 5.57709 6.75399 5.46476 6.83217 5.32938C6.98852 5.05865 7.19803 4.69583 7.41069 4.32751C7.83671 3.58965 8.27347 2.833 8.32294 2.74674L9.93312 3.67019C9.88187 3.75954 9.44282 4.52015 9.01817 5.25563C8.80549 5.624 8.59595 5.98687 8.43956 6.25767C8.36137 6.39306 8.29646 6.50545 8.25108 6.58401C8.2284 6.62328 8.21057 6.65414 8.1984 6.67519C8.19233 6.6857 8.18762 6.69385 8.1844 6.69941C8.18281 6.70216 8.1815 6.70444 8.18053 6.7061C8.18009 6.70687 8.17953 6.70784 8.17899 6.70875C8.1788 6.70909 8.1782 6.71012 8.17748 6.71134C8.17703 6.71211 8.17573 6.71433 8.17486 6.7158C8.17229 6.72012 7.83151 7.05173 7.37624 7.17106V5.31488ZM8.28277 2.82521C8.29298 2.80268 8.32535 2.73003 8.35512 2.66308L10.0512 3.41734C10.0229 3.48093 9.98702 3.56145 9.97329 3.59172L8.28277 2.82521ZM8.35513 2.66307C8.36803 2.63407 8.3823 2.59701 8.40268 2.53952L10.1522 3.15978C10.127 3.23087 10.0937 3.32172 10.0512 3.41735L8.35513 2.66307ZM8.4026 2.53977C9.03118 0.765159 10.6134 -0.357105 12.4948 -0.357105V1.49908C11.4028 1.49908 10.5194 2.12302 10.1523 3.15953L8.4026 2.53977ZM12.4948 -0.357105C15.0074 -0.357105 16.9243 1.83383 16.9243 4.36776H15.0681C15.0681 2.71457 13.8436 1.49908 12.4948 1.49908V-0.357105ZM16.9243 4.36773L16.9245 9.77923L15.0683 9.77928L15.0681 4.36779L16.9243 4.36773ZM16.9245 9.77925C16.9245 10.2882 16.7248 10.7715 16.3651 11.1319L15.0514 9.82059C15.0587 9.81324 15.0623 9.80699 15.0643 9.80211C15.0663 9.79724 15.0683 9.79007 15.0683 9.77925H16.9245ZM16.3645 11.1325C16.0042 11.4928 15.5206 11.6928 15.0111 11.6928V9.83661C15.022 9.83661 15.0291 9.83463 15.0339 9.83267C15.0386 9.83071 15.0447 9.82722 15.052 9.81998L16.3645 11.1325ZM14.5247 9.97429L14.5247 9.97426L15.4976 11.5551L15.4975 11.5551L14.5247 9.97429ZM12.4948 2.02262C11.6124 2.02262 10.9433 2.49467 10.6457 3.33466L8.89608 2.71482C9.45485 1.13757 10.8222 0.166438 12.4948 0.166438V2.02262ZM10.645 3.33666C10.6157 3.41876 10.5777 3.52244 10.5296 3.63047L8.83382 2.87556C8.85231 2.83403 8.87132 2.78422 8.89679 2.71282L10.645 3.33666ZM10.5293 3.63096C10.4868 3.72629 10.4512 3.80679 10.424 3.86131C10.4071 3.89516 10.3797 3.94731 10.34 4.00508C10.2998 4.06361 10.26 4.10776 10.2568 4.11146L8.85898 2.89016C8.86116 2.88766 8.86044 2.88847 8.85934 2.88975C8.85792 2.8914 8.85432 2.8956 8.84959 2.90137C8.84468 2.90735 8.83851 2.91507 8.83155 2.92424C8.82453 2.9335 8.81739 2.94335 8.81025 2.95374C8.79571 2.9749 8.78451 2.99343 8.77655 3.00745C8.76912 3.02053 8.76457 3.02959 8.76355 3.03163C8.7625 3.03373 8.76316 3.03249 8.76631 3.02574C8.76937 3.0192 8.77369 3.00978 8.7799 2.99606C8.78605 2.98247 8.79343 2.96605 8.8025 2.94576C8.81156 2.9255 8.82191 2.90228 8.83404 2.87507L10.5293 3.63096ZM8.95126 4.20321L8.94765 4.2001L10.1609 2.79529L10.1645 2.79841L8.95126 4.20321ZM10.3743 3.9323C10.2291 4.20637 9.81438 4.9241 8.63324 6.96917L7.02588 6.04082C8.22361 3.96703 8.60987 3.29772 8.73422 3.06309L10.3743 3.9323ZM8.63285 6.96983C8.70712 6.8415 8.72781 6.68666 8.68962 6.54294L6.8957 7.0197C6.80765 6.68838 6.85426 6.3374 7.02627 6.04016L8.63285 6.96983ZM8.68884 6.54005C8.65065 6.39819 8.55679 6.27413 8.42623 6.19877L7.49823 7.80632C7.20007 7.63421 6.98518 7.35206 6.89648 7.0226L8.68884 6.54005ZM8.4245 6.19777C8.31885 6.13709 8.21611 6.13749 8.14516 6.15659C8.07448 6.17562 7.98386 6.22716 7.92183 6.33525L9.53171 7.25921C9.12723 7.96397 8.20283 8.21105 7.49997 7.80732L8.4245 6.19777ZM7.9231 6.33304L8.91673 4.61274L10.5241 5.54112L9.53043 7.26142L7.9231 6.33304ZM8.9173 4.61176C9.18537 4.14895 9.73253 3.91733 10.2574 4.05939L9.77246 5.85111C10.0671 5.93085 10.3742 5.79992 10.5235 5.5421L8.9173 4.61176ZM10.2551 4.05877C10.7758 4.19826 11.137 4.6701 11.137 5.20812H9.28084C9.28084 5.50934 9.48302 5.77357 9.77476 5.85173L10.2551 4.05877ZM11.137 5.20812V10.6163H9.28084V5.20812H11.137ZM11.137 10.6163C11.137 10.5105 11.0979 10.4144 11.0335 10.3408C10.9693 10.2673 10.856 10.1915 10.6991 10.1811L10.5772 12.0333C9.79589 11.9819 9.28084 11.3013 9.28084 10.6163H11.137ZM10.6871 10.1804C10.5775 10.1746 10.4435 10.2148 10.3417 10.3164L11.6531 11.6301C11.3601 11.9226 10.9716 12.0543 10.5891 12.034L10.6871 10.1804ZM10.3412 10.317C10.2531 10.4051 10.2041 10.5257 10.2041 10.6467H12.0603C12.0603 11.0154 11.9156 11.3676 11.6537 11.6295L10.3412 10.317ZM10.2041 10.6467V7.10976H12.0603V10.6467H10.2041ZM10.2041 7.10976C10.2041 6.45254 10.7369 5.91977 11.3941 5.91977V7.77595C11.7621 7.77595 12.0603 7.47769 12.0603 7.10976H10.2041ZM11.3941 5.91977C12.051 5.91977 12.5841 6.45201 12.5841 7.10976H10.7279C10.7279 7.47789 11.0266 7.77595 11.3941 7.77595V5.91977ZM12.5841 7.10979L12.5839 11.4507L10.7278 11.4507L10.7279 7.10972L12.5841 7.10979ZM12.5839 11.4507C12.5839 11.1926 12.3755 10.9842 12.1175 10.9842V12.8404C11.3504 12.8404 10.7278 12.2178 10.7278 11.4507H12.5839ZM12.1175 10.9842C11.9967 10.9842 11.8766 11.0329 11.7887 11.1206L13.1 12.4344C12.8379 12.696 12.4856 12.8404 12.1175 12.8404V10.9842ZM11.7874 11.1219C11.6997 11.2098 11.651 11.3299 11.651 11.4507H13.5072C13.5072 11.8188 13.3628 12.1711 13.1012 12.4332L11.7874 11.1219ZM11.651 11.4507V7.10975H13.5072V11.4507H11.651ZM11.651 7.10975C11.651 6.45293 12.1833 5.91976 12.841 5.91976V7.77595C13.2092 7.77595 13.5072 7.4773 13.5072 7.10975H11.651ZM12.841 5.91976C13.4979 5.91976 14.031 6.452 14.031 7.10975H12.1748C12.1748 7.4779 12.4735 7.77595 12.841 7.77595V5.91976ZM14.031 7.1098L14.0308 10.6061L12.1747 10.606L12.1748 7.10971L14.031 7.1098ZM14.0308 10.6061V10.6467H12.1747V10.6061H14.0308ZM14.0308 10.6467C14.0308 10.3881 13.822 10.1801 13.5646 10.1801V12.0363C12.7978 12.0363 12.1747 11.4141 12.1747 10.6467H14.0308ZM13.5646 10.1801C13.4412 10.1801 13.3218 10.2303 13.2364 10.3154L14.5464 11.6304C14.2858 11.89 13.9349 12.0363 13.5646 12.0363V10.1801ZM13.2358 10.316C13.147 10.4046 13.0981 10.5257 13.0981 10.6466H14.9543C14.9543 11.015 14.8096 11.3677 14.547 11.6298L13.2358 10.316ZM13.0981 10.6466V7.10957H14.9543V10.6466H13.0981ZM13.0981 7.10957C13.0981 6.45273 13.6303 5.91958 14.2881 5.91958V7.77577C14.6562 7.77577 14.9543 7.47713 14.9543 7.10957H13.0981ZM14.2881 5.91958C14.9449 5.91958 15.4781 6.45182 15.4781 7.10957H13.6219C13.6219 7.47771 13.9205 7.77577 14.2881 7.77577V5.91958ZM15.4781 7.10968L15.4778 9.77949L13.6216 9.77926L13.6219 7.10945L15.4781 7.10968ZM15.4778 9.77938C15.4778 9.52192 15.2698 9.31309 15.0111 9.31309V11.1693C14.2438 11.1693 13.6216 10.5462 13.6216 9.77938H15.4778ZM15.0111 9.31309C14.8894 9.31309 14.7693 9.36238 14.682 9.4495L15.9933 10.7633C15.7322 11.0239 15.3805 11.1693 15.0111 11.1693V9.31309ZM14.6814 9.45012C14.593 9.5385 14.5445 9.65911 14.5445 9.77938H16.4007C16.4007 10.1469 16.2568 10.4998 15.9939 10.7626L14.6814 9.45012ZM14.5445 9.77935L14.5447 4.36786L16.4009 4.36792L16.4007 9.77941L14.5445 9.77935ZM14.5447 4.36789C14.5447 2.99115 13.5436 2.02268 12.4948 2.02268V0.166492C14.7301 0.166492 16.4009 2.13517 16.4009 4.36789H14.5447ZM11.6024 0.839618L11.6024 0.839564L13.3872 1.3495L13.3872 1.34955L11.6024 0.839618Z" fill="#4CAF4F" mask="url(#path-1-inside-1_211_2339)"/>
<path d="M6.52856 15.7395C6.40426 15.8143 6.24354 15.7739 6.16925 15.6498C6.0948 15.5258 6.13514 15.3649 6.25896 15.2905M6.52856 15.7395L8.79116 12.695C9.00976 12.5636 9.29806 12.6154 9.43286 12.8104M6.52856 15.7395L9.56143 13.92H9.56159L9.56192 13.9198M6.52856 15.7395L10.7259 14.2981C10.8319 14.2345 10.9067 14.1338 10.9365 14.0143M6.25896 15.2905L9.29199 13.471C9.39793 13.4073 9.47288 13.3065 9.50272 13.1873M6.25896 15.2905L6.28966 15.3417L6.39366 15.515L6.39387 15.5154L6.44073 15.5935L6.49768 15.6884L6.49779 15.6883L6.49786 15.6883L6.49809 15.6882M6.25896 15.2905L6.28972 15.3416M9.50272 13.1873C9.53552 13.0564 9.51059 12.9226 9.43286 12.8104M9.50272 13.1873L9.57758 13.206L9.57043 13.0521C9.56551 12.9462 9.53452 12.8522 9.48211 12.7767L9.48196 12.7765L9.43286 12.8104M9.50272 13.1873L9.57758 13.206L9.58496 13.3648L9.43312 13.4559H9.43291L9.3227 13.5221L9.32268 13.5221L9.32265 13.5221L6.28983 15.3416M9.43286 12.8104L9.48193 12.7764L7.24261 16.9289C7.33783 16.8716 7.36933 16.7478 7.31159 16.6516C7.25434 16.5563 7.13007 16.5249 7.03436 16.5823L10.0672 14.7629C10.1369 14.721 10.21 14.6895 10.2845 14.6677L10.7549 14.3465L10.755 14.3465L10.7809 14.3288C10.8912 14.2535 10.9642 14.149 10.9942 14.0288L10.9943 14.0287L10.9365 14.0143M6.28983 15.3416C6.38528 15.2845 6.50951 15.3154 6.56708 15.4109C6.5672 15.4111 6.56733 15.4113 6.56745 15.4115C6.62468 15.5076 6.59312 15.631 6.49809 15.6882M6.28983 15.3416C6.28979 15.3416 6.28976 15.3416 6.28972 15.3416M6.28983 15.3416L6.28972 15.3416M6.49809 15.6882L9.53071 13.8689L9.53077 13.8689L9.53093 13.8688C9.53102 13.8687 9.53111 13.8687 9.5312 13.8686L9.56143 13.919L9.56159 13.9193L9.56192 13.9198M6.49809 15.6882L6.39411 15.5152L6.3939 15.5149L6.35872 15.4564L6.28972 15.3416M9.56192 13.9198V13.8493C9.62044 13.811 9.674 13.7666 9.72182 13.717L10.221 13.4564L10.2211 13.4564L10.2487 13.442C10.329 13.4001 10.4099 13.3805 10.4868 13.3805C10.5283 13.3805 10.5712 13.3857 10.6149 13.3965C10.6149 13.3965 10.6149 13.3965 10.6149 13.3965C10.6151 13.3965 10.6152 13.3966 10.6154 13.3966L10.7131 13.0042M9.56192 13.9198L10.251 13.5064C10.3566 13.4431 10.4803 13.4246 10.6005 13.4544C10.72 13.4842 10.8209 13.559 10.8844 13.6648C10.9478 13.7707 10.9664 13.8949 10.9365 14.0143M10.7131 13.0042C10.7131 13.0042 10.713 13.0042 10.713 13.0042M10.7131 13.0042C10.9522 13.064 11.1556 13.2149 11.2822 13.4259L11.3333 13.3953M10.7131 13.0042L10.7275 12.9463M10.713 13.0042L10.615 13.3965C10.7508 13.4304 10.8633 13.5138 10.9353 13.634C10.9354 13.634 10.9354 13.6341 10.9354 13.6342C10.9354 13.6342 10.9355 13.6342 10.9355 13.6342C11.0077 13.7549 11.0281 13.8934 10.9943 14.0286L10.9943 14.0287L10.9365 14.0143M10.713 13.0042C10.713 13.0042 10.7129 13.0042 10.7129 13.0042L10.7123 13.004C10.6406 12.9862 10.5679 12.9771 10.4957 12.9765M10.713 13.0042L10.7275 12.9463M10.2754 15.1095L10.537 14.9526L10.8068 15.1117C10.8876 15.1594 10.9486 15.2191 10.9899 15.2881L10.9901 15.2883C10.9901 15.2884 10.9901 15.2884 10.9902 15.2885L10.9393 15.3191M10.2754 15.1095L11.0492 15.6832C11.083 15.5475 11.0624 15.4091 10.9902 15.2886L10.9393 15.3191M10.2754 15.1095L10.3061 15.1607M10.2754 15.1095L10.2754 15.1096L10.3061 15.1607M10.9393 15.3191C10.8083 15.1009 10.5241 15.0299 10.3061 15.1607M10.9393 15.3191C11.0029 15.4249 11.0214 15.5492 10.9916 15.6688L10.3061 15.1607M11.3815 15.0388C11.3837 15.0424 11.3859 15.0461 11.3881 15.0497L11.3815 15.0388ZM11.3815 15.0388C11.3658 15.0511 11.3499 15.063 11.3337 15.0746C11.3348 15.0764 11.3359 15.0781 11.3369 15.0799L11.3815 15.0388ZM11.3092 14.3311C11.3427 14.267 11.3688 14.1985 11.3867 14.1268L11.3092 14.3311ZM11.3092 14.3311C11.3259 14.3414 11.3424 14.3521 11.3588 14.3632C11.396 14.2939 11.4249 14.2196 11.4445 14.1412C11.5083 13.8861 11.4688 13.6213 11.3333 13.3953M11.3092 14.3311L11.3867 14.1267C11.4465 13.8876 11.4088 13.6373 11.2824 13.4263L11.2823 13.4261C11.2822 13.426 11.2822 13.426 11.2822 13.426L11.3333 13.3953M11.3333 13.3953C11.198 13.1697 10.9828 13.0101 10.7275 12.9463M10.7275 12.9463L10.4904 12.9165M10.4904 12.9165C10.4926 12.9365 10.4943 12.9565 10.4957 12.9765M10.4904 12.9165C10.4892 12.9165 10.488 12.9165 10.4868 12.9165C10.3298 12.9165 10.1757 12.9567 10.034 13.0306M10.4904 12.9165L10.034 13.0306M10.4957 12.9765C10.4964 12.9874 10.497 12.9982 10.4975 13.0091L10.4868 13.0096L10.1987 13.023M10.4957 12.9765C10.4927 12.9765 10.4897 12.9764 10.4868 12.9764C10.3888 12.9765 10.2917 12.9922 10.1987 13.023M10.1987 13.023L10.034 13.0306M10.1987 13.023C10.1514 13.0386 10.1052 13.0581 10.0605 13.0814C10.0443 13.0899 10.0283 13.0989 10.0124 13.1084L10.0123 13.1085L9.97928 13.1283M10.034 13.0306L9.7695 13.2541L9.76959 13.2541L9.95288 13.3C9.95287 13.3 9.95286 13.3 9.95285 13.3001C9.96716 13.243 9.97591 13.1855 9.97928 13.1283M10.034 13.0306L9.96313 12.8949M10.034 13.0306C10.0266 12.8725 9.98495 12.7168 9.90496 12.5778C9.88677 12.5859 9.86875 12.5944 9.85091 12.6032M9.97928 13.1283C9.98116 13.0964 9.98137 13.0647 9.97995 13.0331C9.97786 12.9866 9.97222 12.9404 9.96313 12.8949M9.97928 13.1283L9.96313 12.8949M9.96313 12.8949L9.81925 12.6192C9.82974 12.6138 9.84029 12.6084 9.85091 12.6032M9.96313 12.8949L9.81437 12.5462C9.82728 12.5649 9.83946 12.5839 9.85091 12.6032M9.96313 12.8949C9.94274 12.7929 9.90497 12.6944 9.85091 12.6032M11.0425 14.712L11.1219 14.5776C11.0875 14.6097 11.0506 14.6394 11.0112 14.6662C10.9961 14.6765 10.9807 14.6865 10.9649 14.696L10.9647 14.6961L10.9311 14.7162L11.0425 14.712ZM3.63173 12.5524L3.57897 12.5246C3.56927 12.5421 3.54513 12.5856 3.50946 12.6499C3.50063 12.6658 3.49109 12.683 3.48089 12.7013C3.49907 12.7104 3.51742 12.7184 3.53579 12.7253C3.56716 12.6688 3.59914 12.6112 3.63173 12.5524ZM7.77871 17.8231C7.77866 17.8231 7.77861 17.8231 7.77856 17.8231L7.77871 17.8231Z" fill="#4CAF4F" stroke="#4CAF4F" stroke-width="0.928093"/>
<path d="M19.4805 13.3886L19.4805 13.3886L19.4805 13.3886ZM19.4805 13.3886C19.3833 13.2144 19.3872 12.9999 19.4902 12.8282L19.4805 13.3886ZM13.7389 12.9763C13.6664 12.9769 13.5935 12.9861 13.5216 13.0041L13.7389 12.9763ZM13.7389 12.9763C13.7403 12.9564 13.742 12.9364 13.7442 12.9164L13.7389 12.9763ZM19.0629 13.714L19.0235 13.643L19.0629 13.714ZM17.9447 15.3415C17.9446 15.3415 17.9445 15.3414 17.9444 15.3413L17.9446 15.3414L17.9447 15.3415ZM16.4559 17.8235C16.4557 17.8234 16.4556 17.8233 16.4555 17.8233L16.4559 17.8235ZM16.4554 17.8232L16.4555 17.8233L16.4554 17.8232Z" fill="#4CAF4F" stroke="#4CAF4F" stroke-width="0.928093"/>
</svg>
