<svg width="11" height="12" viewBox="0 0 11 12" fill="none" xmlns="http://www.w3.org/2000/svg">
<path opacity="0.1" fill-rule="evenodd" clip-rule="evenodd" d="M0.0879517 5.72721C0.0879517 2.77698 2.47959 0.385345 5.42982 0.385345C8.38005 0.385345 10.7717 2.77698 10.7717 5.72721C10.7717 8.67744 8.38005 11.0691 5.42982 11.0691C2.47959 11.0691 0.0879517 8.67744 0.0879517 5.72721Z" fill="white"/>
<path fill-rule="evenodd" clip-rule="evenodd" d="M5.43013 2.8782C4.65639 2.8782 4.55928 2.88159 4.25539 2.89542C3.95208 2.90931 3.74505 2.95732 3.5639 3.02778C3.37652 3.10055 3.21757 3.19789 3.05921 3.35631C2.90073 3.51466 2.80339 3.67362 2.73039 3.86094C2.65975 4.04215 2.61168 4.24924 2.59803 4.55242C2.58443 4.85632 2.58087 4.95348 2.58087 5.72723C2.58087 6.50098 2.58431 6.59778 2.59808 6.90168C2.61203 7.20498 2.66005 7.41201 2.73045 7.59316C2.80327 7.78054 2.90062 7.9395 3.05903 8.09785C3.21733 8.25633 3.37628 8.35391 3.56355 8.42668C3.74482 8.49713 3.95191 8.54515 4.25515 8.55904C4.55904 8.57287 4.65609 8.57625 5.42978 8.57625C6.20358 8.57625 6.30039 8.57287 6.60429 8.55904C6.90759 8.54515 7.11486 8.49713 7.29613 8.42668C7.48345 8.35391 7.64216 8.25633 7.80046 8.09785C7.95894 7.9395 8.05628 7.78054 8.12929 7.59322C8.19933 7.41201 8.2474 7.20492 8.26165 6.90174C8.2753 6.59784 8.27886 6.50098 8.27886 5.72723C8.27886 4.95348 8.2753 4.85638 8.26165 4.55248C8.2474 4.24918 8.19933 4.04215 8.12929 3.861C8.05628 3.67362 7.95894 3.51466 7.80046 3.35631C7.64199 3.19783 7.48351 3.10049 7.29595 3.02778C7.11432 2.95732 6.90717 2.90931 6.60387 2.89542C6.29998 2.88159 6.20323 2.8782 5.42924 2.8782H5.43013ZM5.17454 3.39161C5.25039 3.3915 5.33503 3.39161 5.43012 3.39161C6.19081 3.39161 6.28097 3.39434 6.58136 3.408C6.85914 3.4207 7.0099 3.46711 7.11033 3.50611C7.24329 3.55775 7.33808 3.61948 7.43773 3.71919C7.53745 3.81891 7.59918 3.91388 7.65094 4.04683C7.68993 4.14714 7.73641 4.2979 7.74905 4.57568C7.7627 4.87602 7.76567 4.96623 7.76567 5.72657C7.76567 6.4869 7.7627 6.57712 7.74905 6.87745C7.73635 7.15523 7.68993 7.306 7.65094 7.4063C7.5993 7.53926 7.53745 7.63393 7.43773 7.73359C7.33802 7.8333 7.24335 7.89503 7.11033 7.94667C7.01002 7.98584 6.85914 8.03214 6.58136 8.04484C6.28103 8.05849 6.19081 8.06146 5.43012 8.06146C4.66937 8.06146 4.57921 8.05849 4.27888 8.04484C4.0011 8.03202 3.85034 7.98561 3.74985 7.94661C3.6169 7.89497 3.52193 7.83324 3.42221 7.73353C3.3225 7.63381 3.26077 7.53908 3.20901 7.40607C3.17001 7.30576 3.12354 7.155 3.1109 6.87722C3.09725 6.57688 3.09451 6.48666 3.09451 5.72586C3.09451 4.96505 3.09725 4.8753 3.1109 4.57497C3.1236 4.29719 3.17001 4.14643 3.20901 4.046C3.26065 3.91305 3.3225 3.81808 3.42221 3.71836C3.52193 3.61865 3.6169 3.55692 3.74985 3.50516C3.85028 3.46599 4.0011 3.41969 4.27888 3.40693C4.5417 3.39506 4.64355 3.3915 5.17454 3.3909V3.39161ZM6.95091 3.86467C6.76216 3.86467 6.60903 4.01763 6.60903 4.20644C6.60903 4.39518 6.76216 4.54832 6.95091 4.54832C7.13966 4.54832 7.29279 4.39518 7.29279 4.20644C7.29279 4.01769 7.13966 3.86467 6.95091 3.86467ZM5.43014 4.26413C4.62214 4.26413 3.96705 4.91923 3.96705 5.72722C3.96705 6.53522 4.62214 7.19002 5.43014 7.19002C6.23813 7.19002 6.89299 6.53522 6.89299 5.72722C6.89299 4.91923 6.23813 4.26413 5.43014 4.26413ZM5.43013 4.77755C5.95458 4.77755 6.3798 5.2027 6.3798 5.72722C6.3798 6.25168 5.95458 6.6769 5.43013 6.6769C4.90561 6.6769 4.48045 6.25168 4.48045 5.72722C4.48045 5.2027 4.90561 4.77755 5.43013 4.77755Z" fill="white"/>
</svg>
