<svg width="11" height="12" viewBox="0 0 11 12" fill="none" xmlns="http://www.w3.org/2000/svg">
<path opacity="0.1" fill-rule="evenodd" clip-rule="evenodd" d="M0.13916 5.72721C0.13916 2.77698 2.53079 0.385345 5.48102 0.385345C8.43126 0.385345 10.8229 2.77698 10.8229 5.72721C10.8229 8.67744 8.43126 11.0691 5.48102 11.0691C2.53079 11.0691 0.13916 8.67744 0.13916 5.72721Z" fill="white"/>
<path fill-rule="evenodd" clip-rule="evenodd" d="M5.32106 4.72727L5.33227 4.91211L5.14545 4.88948C4.4654 4.80271 3.87129 4.50848 3.36686 4.01431L3.12025 3.76912L3.05673 3.95018C2.92222 4.35382 3.00816 4.78008 3.28839 5.06677C3.43786 5.22521 3.40423 5.24784 3.14641 5.15353C3.05673 5.12336 2.97826 5.10072 2.97079 5.11204C2.94463 5.13845 3.03431 5.48172 3.10531 5.61752C3.20245 5.80614 3.40049 5.99098 3.61721 6.10037L3.8003 6.18713L3.58358 6.19091C3.37433 6.19091 3.36686 6.19468 3.38928 6.2739C3.46401 6.51909 3.7592 6.77938 4.08801 6.89255L4.31968 6.97176L4.1179 7.09247C3.81898 7.266 3.46775 7.36408 3.11651 7.37162C2.94837 7.37539 2.81012 7.39048 2.81012 7.4018C2.81012 7.43952 3.26598 7.65077 3.53127 7.73376C4.32715 7.97895 5.27249 7.87333 5.98243 7.45461C6.48686 7.1566 6.99129 6.56436 7.22669 5.99098C7.35373 5.68542 7.48077 5.12713 7.48077 4.8593C7.48077 4.68577 7.49198 4.66314 7.70123 4.45567C7.82453 4.33496 7.94037 4.20293 7.96279 4.1652C8.00015 4.09353 7.99641 4.09353 7.80585 4.15766C7.48825 4.27083 7.44341 4.25574 7.60034 4.08599C7.71618 3.96527 7.85443 3.74648 7.85443 3.68235C7.85443 3.67104 7.79838 3.6899 7.73486 3.72385C7.6676 3.76157 7.51814 3.81816 7.40604 3.85211L7.20427 3.91623L7.02118 3.79175C6.9203 3.72385 6.77831 3.6484 6.70358 3.62577C6.51301 3.57296 6.22157 3.5805 6.04969 3.64086C5.58262 3.81061 5.28744 4.24819 5.32106 4.72727Z" fill="white"/>
</svg>
