<svg width="11" height="12" viewBox="0 0 11 12" fill="none" xmlns="http://www.w3.org/2000/svg">
<path opacity="0.1" fill-rule="evenodd" clip-rule="evenodd" d="M0.164734 5.72721C0.164734 2.77698 2.55637 0.385345 5.5066 0.385345C8.45683 0.385345 10.8485 2.77698 10.8485 5.72721C10.8485 8.67744 8.45683 11.0691 5.5066 11.0691C2.55637 11.0691 0.164734 8.67744 0.164734 5.72721Z" fill="white"/>
<path fill-rule="evenodd" clip-rule="evenodd" d="M7.73278 3.89079C7.97796 3.95807 8.17104 4.1563 8.23657 4.40804C8.35564 4.86428 8.35564 5.81624 8.35564 5.81624C8.35564 5.81624 8.35564 6.76816 8.23657 7.22444C8.17104 7.47618 7.97796 7.67441 7.73278 7.74172C7.28847 7.86395 5.50665 7.86395 5.50665 7.86395C5.50665 7.86395 3.72483 7.86395 3.28048 7.74172C3.03531 7.67441 2.84222 7.47618 2.7767 7.22444C2.65765 6.76816 2.65765 5.81624 2.65765 5.81624C2.65765 5.81624 2.65765 4.86428 2.7767 4.40804C2.84222 4.1563 3.03531 3.95807 3.28048 3.89079C3.72483 3.76852 5.50665 3.76852 5.50665 3.76852C5.50665 3.76852 7.28847 3.76852 7.73278 3.89079ZM4.97247 5.01494V6.79556L6.39696 5.90529L4.97247 5.01494Z" fill="white"/>
</svg>
